<svg width="26" height="10" viewBox="0 0 26 10" fill="none" xmlns="http://www.w3.org/2000/svg">
<path d="M21.8327 9.13201C20.5607 9.13201 19.3247 8.62801 18.6887 8.01601C18.6407 7.96801 18.6167 7.88401 18.6767 7.81201L19.5887 6.76801C19.6367 6.70801 19.7087 6.70801 19.7687 6.75601C20.3087 7.18801 21.0407 7.59601 21.9047 7.59601C22.7567 7.59601 23.2367 7.20001 23.2367 6.62401C23.2367 6.14401 22.9487 5.84401 21.9767 5.71201L21.5447 5.65201C19.8887 5.42401 18.9647 4.64401 18.9647 3.20401C18.9647 1.70401 20.0927 0.708008 21.8567 0.708008C22.9367 0.708008 23.9447 1.03201 24.6287 1.56001C24.7007 1.60801 24.7127 1.65601 24.6527 1.74001L23.9207 2.83201C23.8727 2.89201 23.8127 2.90401 23.7527 2.86801C23.1287 2.46001 22.5287 2.24401 21.8567 2.24401C21.1367 2.24401 20.7647 2.61601 20.7647 3.13201C20.7647 3.60001 21.1007 3.90001 22.0367 4.03201L22.4687 4.09201C24.1487 4.32001 25.0367 5.08801 25.0367 6.56401C25.0367 8.04001 23.9447 9.13201 21.8327 9.13201Z" fill="black"/>
<path d="M9.93237 8.88V0.959996C9.93237 0.887996 9.98037 0.839996 10.0524 0.839996H11.4804C11.5764 0.839996 11.6364 0.875996 11.6724 0.959996L13.7364 5.616H13.7844L15.8124 0.959996C15.8484 0.875996 15.9084 0.839996 16.0044 0.839996H17.4084C17.4804 0.839996 17.5284 0.887996 17.5284 0.959996V8.88C17.5284 8.952 17.4804 9 17.4084 9H16.0524C15.9804 9 15.9324 8.952 15.9324 8.88V4.284H15.8844L14.3724 7.728C14.3244 7.836 14.2524 7.884 14.1444 7.884H13.3164C13.2084 7.884 13.1364 7.836 13.0884 7.728L11.5764 4.284H11.5284V8.88C11.5284 8.952 11.4804 9 11.4084 9H10.0524C9.98037 9 9.93237 8.952 9.93237 8.88Z" fill="black"/>
<path d="M0.780029 8.88V0.959996C0.780029 0.887996 0.828029 0.839996 0.900029 0.839996H2.32803C2.42403 0.839996 2.48403 0.875996 2.52003 0.959996L4.58403 5.616H4.63203L6.66003 0.959996C6.69603 0.875996 6.75603 0.839996 6.85203 0.839996H8.25603C8.32803 0.839996 8.37603 0.887996 8.37603 0.959996V8.88C8.37603 8.952 8.32803 9 8.25603 9H6.90003C6.82803 9 6.78003 8.952 6.78003 8.88V4.284H6.73203L5.22003 7.728C5.17203 7.836 5.10003 7.884 4.99203 7.884H4.16403C4.05603 7.884 3.98403 7.836 3.93603 7.728L2.42403 4.284H2.37603V8.88C2.37603 8.952 2.32803 9 2.25603 9H0.900029C0.828029 9 0.780029 8.952 0.780029 8.88Z" fill="black"/>
</svg>
